<svg xmlns="http://www.w3.org/2000/svg" viewBox="0 0 64 64" width="64" height="64">
    <!-- Handshake/commitment icon -->
    <path d="M 12 28 L 20 20 L 28 24 L 32 20 L 36 24 L 44 20 L 52 28 L 52 36 L 44 44 L 36 40 L 28 44 L 20 40 L 12 36 Z" fill="#8BC34A" stroke="#558B2F" stroke-width="2"/>
    <!-- Hands detail -->
    <path d="M 20 32 L 24 36 L 28 32" fill="none" stroke="#558B2F" stroke-width="2"/>
    <path d="M 36 32 L 40 36 L 44 32" fill="none" stroke="#558B2F" stroke-width="2"/>
    <!-- Star of honor -->
    <polygon points="32,12 34,18 40,18 35,22 37,28 32,24 27,28 29,22 24,18 30,18" fill="#FFD54F" stroke="#F9A825" stroke-width="1"/>
</svg>
