<svg xmlns="http://www.w3.org/2000/svg" viewBox="0 0 64 64" width="64" height="64">
    <!-- Eye and ear icon for sensory requirements -->
    <!-- Eye -->
    <ellipse cx="20" cy="24" rx="12" ry="8" fill="#03A9F4" stroke="#0277BD" stroke-width="2"/>
    <circle cx="20" cy="24" r="6" fill="#01579B"/>
    <circle cx="20" cy="24" r="3" fill="#B3E5FC"/>
    <!-- Ear -->
    <path d="M 44 20 C 36 20 36 28 36 32 C 36 36 36 44 44 44 C 52 44 56 36 56 28 C 56 20 52 16 44 16 C 40 16 38 18 38 22" fill="none" stroke="#E91E63" stroke-width="2"/>
    <path d="M 44 24 C 40 24 40 28 40 32 C 40 36 40 40 44 40" fill="none" stroke="#E91E63" stroke-width="2"/>
    <circle cx="44" cy="32" r="2" fill="#E91E63"/>
</svg>
